<svg xmlns="http://www.w3.org/2000/svg" xmlns:xlink="http://www.w3.org/1999/xlink" width="384" zoomAndPan="magnify" viewBox="0 0 288 287.999989" height="384" preserveAspectRatio="xMidYMid meet" version="1.0"><defs><clipPath id="e0d65b7240"><path d="M 14.398438 35 L 26 35 L 26 47 L 14.398438 47 Z M 14.398438 35 " clip-rule="nonzero"/></clipPath><clipPath id="52a57ebdd6"><path d="M 14.398438 48 L 26 48 L 26 60 L 14.398438 60 Z M 14.398438 48 " clip-rule="nonzero"/></clipPath><clipPath id="b8761d2ea8"><path d="M 14.398438 62 L 26 62 L 26 74 L 14.398438 74 Z M 14.398438 62 " clip-rule="nonzero"/></clipPath><clipPath id="bd7ac61d05"><path d="M 14.398438 76 L 26 76 L 26 88 L 14.398438 88 Z M 14.398438 76 " clip-rule="nonzero"/></clipPath><clipPath id="f84ae2c499"><path d="M 14.398438 90 L 26 90 L 26 102 L 14.398438 102 Z M 14.398438 90 " clip-rule="nonzero"/></clipPath><clipPath id="ec28280407"><path d="M 14.398438 104 L 26 104 L 26 116 L 14.398438 116 Z M 14.398438 104 " clip-rule="nonzero"/></clipPath><clipPath id="d8712c62cf"><path d="M 14.398438 117 L 26 117 L 26 129 L 14.398438 129 Z M 14.398438 117 " clip-rule="nonzero"/></clipPath><clipPath id="cf1eb9c567"><path d="M 14.398438 131 L 26 131 L 26 143 L 14.398438 143 Z M 14.398438 131 " clip-rule="nonzero"/></clipPath><clipPath id="0b1f6db66e"><path d="M 14.398438 145 L 26 145 L 26 157 L 14.398438 157 Z M 14.398438 145 " clip-rule="nonzero"/></clipPath><clipPath id="d5d6a283b3"><path d="M 14.398438 159 L 26 159 L 26 171 L 14.398438 171 Z M 14.398438 159 " clip-rule="nonzero"/></clipPath><clipPath id="fe819d9e29"><path d="M 14.398438 172 L 26 172 L 26 184 L 14.398438 184 Z M 14.398438 172 " clip-rule="nonzero"/></clipPath><clipPath id="1436d82974"><path d="M 14.398438 186 L 26 186 L 26 198 L 14.398438 198 Z M 14.398438 186 " clip-rule="nonzero"/></clipPath><clipPath id="5d0fa4c9c9"><path d="M 14.398438 200 L 26 200 L 26 212 L 14.398438 212 Z M 14.398438 200 " clip-rule="nonzero"/></clipPath><clipPath id="2445c44017"><path d="M 14.398438 214 L 26 214 L 26 226 L 14.398438 226 Z M 14.398438 214 " clip-rule="nonzero"/></clipPath><clipPath id="3f03894700"><path d="M 14.398438 228 L 26 228 L 26 240 L 14.398438 240 Z M 14.398438 228 " clip-rule="nonzero"/></clipPath><clipPath id="f9eb15914d"><path d="M 14.398438 241 L 26 241 L 26 253 L 14.398438 253 Z M 14.398438 241 " clip-rule="nonzero"/></clipPath><clipPath id="0c775d223e"><path d="M 262 62 L 273.898438 62 L 273.898438 74 L 262 74 Z M 262 62 " clip-rule="nonzero"/></clipPath><clipPath id="e2943fc9d3"><path d="M 262 186 L 273.898438 186 L 273.898438 198 L 262 198 Z M 262 186 " clip-rule="nonzero"/></clipPath></defs><g clip-path="url(#e0d65b7240)"><path fill="#184c34" d="M 14.398438 35.089844 L 25.429688 35.089844 L 25.429688 46.117188 L 14.398438 46.117188 Z M 14.398438 35.089844 " fill-opacity="1" fill-rule="nonzero"/></g><g clip-path="url(#52a57ebdd6)"><path fill="#184c34" d="M 14.398438 48.875 L 25.429688 48.875 L 25.429688 59.90625 L 14.398438 59.90625 Z M 14.398438 48.875 " fill-opacity="1" fill-rule="nonzero"/></g><g clip-path="url(#b8761d2ea8)"><path fill="#184c34" d="M 14.398438 62.660156 L 25.429688 62.660156 L 25.429688 73.691406 L 14.398438 73.691406 Z M 14.398438 62.660156 " fill-opacity="1" fill-rule="nonzero"/></g><g clip-path="url(#bd7ac61d05)"><path fill="#184c34" d="M 14.398438 76.445312 L 25.429688 76.445312 L 25.429688 87.476562 L 14.398438 87.476562 Z M 14.398438 76.445312 " fill-opacity="1" fill-rule="nonzero"/></g><g clip-path="url(#f84ae2c499)"><path fill="#184c34" d="M 14.398438 90.234375 L 25.429688 90.234375 L 25.429688 101.261719 L 14.398438 101.261719 Z M 14.398438 90.234375 " fill-opacity="1" fill-rule="nonzero"/></g><g clip-path="url(#ec28280407)"><path fill="#184c34" d="M 14.398438 104.019531 L 25.429688 104.019531 L 25.429688 115.046875 L 14.398438 115.046875 Z M 14.398438 104.019531 " fill-opacity="1" fill-rule="nonzero"/></g><g clip-path="url(#d8712c62cf)"><path fill="#184c34" d="M 14.398438 117.804688 L 25.429688 117.804688 L 25.429688 128.832031 L 14.398438 128.832031 Z M 14.398438 117.804688 " fill-opacity="1" fill-rule="nonzero"/></g><g clip-path="url(#cf1eb9c567)"><path fill="#184c34" d="M 14.398438 131.589844 L 25.429688 131.589844 L 25.429688 142.621094 L 14.398438 142.621094 Z M 14.398438 131.589844 " fill-opacity="1" fill-rule="nonzero"/></g><g clip-path="url(#0b1f6db66e)"><path fill="#184c34" d="M 14.398438 145.375 L 25.429688 145.375 L 25.429688 156.40625 L 14.398438 156.40625 Z M 14.398438 145.375 " fill-opacity="1" fill-rule="nonzero"/></g><g clip-path="url(#d5d6a283b3)"><path fill="#184c34" d="M 14.398438 159.164062 L 25.429688 159.164062 L 25.429688 170.191406 L 14.398438 170.191406 Z M 14.398438 159.164062 " fill-opacity="1" fill-rule="nonzero"/></g><g clip-path="url(#fe819d9e29)"><path fill="#184c34" d="M 14.398438 172.949219 L 25.429688 172.949219 L 25.429688 183.976562 L 14.398438 183.976562 Z M 14.398438 172.949219 " fill-opacity="1" fill-rule="nonzero"/></g><g clip-path="url(#1436d82974)"><path fill="#184c34" d="M 14.398438 186.734375 L 25.429688 186.734375 L 25.429688 197.761719 L 14.398438 197.761719 Z M 14.398438 186.734375 " fill-opacity="1" fill-rule="nonzero"/></g><g clip-path="url(#5d0fa4c9c9)"><path fill="#184c34" d="M 14.398438 200.519531 L 25.429688 200.519531 L 25.429688 211.550781 L 14.398438 211.550781 Z M 14.398438 200.519531 " fill-opacity="1" fill-rule="nonzero"/></g><g clip-path="url(#2445c44017)"><path fill="#184c34" d="M 14.398438 214.304688 L 25.429688 214.304688 L 25.429688 225.335938 L 14.398438 225.335938 Z M 14.398438 214.304688 " fill-opacity="1" fill-rule="nonzero"/></g><g clip-path="url(#3f03894700)"><path fill="#184c34" d="M 14.398438 228.09375 L 25.429688 228.09375 L 25.429688 239.121094 L 14.398438 239.121094 Z M 14.398438 228.09375 " fill-opacity="1" fill-rule="nonzero"/></g><g clip-path="url(#f9eb15914d)"><path fill="#184c34" d="M 14.398438 241.878906 L 25.429688 241.878906 L 25.429688 252.90625 L 14.398438 252.90625 Z M 14.398438 241.878906 " fill-opacity="1" fill-rule="nonzero"/></g><path fill="#184c34" d="M 28.1875 35.089844 L 39.214844 35.089844 L 39.214844 46.117188 L 28.1875 46.117188 Z M 28.1875 35.089844 " fill-opacity="1" fill-rule="nonzero"/><path fill="#184c34" d="M 28.1875 48.875 L 39.214844 48.875 L 39.214844 59.90625 L 28.1875 59.90625 Z M 28.1875 48.875 " fill-opacity="1" fill-rule="nonzero"/><path fill="#184c34" d="M 28.1875 62.660156 L 39.214844 62.660156 L 39.214844 73.691406 L 28.1875 73.691406 Z M 28.1875 62.660156 " fill-opacity="1" fill-rule="nonzero"/><path fill="#184c34" d="M 28.1875 76.445312 L 39.214844 76.445312 L 39.214844 87.476562 L 28.1875 87.476562 Z M 28.1875 76.445312 " fill-opacity="1" fill-rule="nonzero"/><path fill="#184c34" d="M 28.1875 90.234375 L 39.214844 90.234375 L 39.214844 101.261719 L 28.1875 101.261719 Z M 28.1875 90.234375 " fill-opacity="1" fill-rule="nonzero"/><path fill="#184c34" d="M 28.1875 104.019531 L 39.214844 104.019531 L 39.214844 115.046875 L 28.1875 115.046875 Z M 28.1875 104.019531 " fill-opacity="1" fill-rule="nonzero"/><path fill="#184c34" d="M 28.1875 117.804688 L 39.214844 117.804688 L 39.214844 128.832031 L 28.1875 128.832031 Z M 28.1875 117.804688 " fill-opacity="1" fill-rule="nonzero"/><path fill="#184c34" d="M 28.1875 131.589844 L 39.214844 131.589844 L 39.214844 142.621094 L 28.1875 142.621094 Z M 28.1875 131.589844 " fill-opacity="1" fill-rule="nonzero"/><path fill="#184c34" d="M 28.1875 145.375 L 39.214844 145.375 L 39.214844 156.40625 L 28.1875 156.40625 Z M 28.1875 145.375 " fill-opacity="1" fill-rule="nonzero"/><path fill="#184c34" d="M 28.1875 159.164062 L 39.214844 159.164062 L 39.214844 170.191406 L 28.1875 170.191406 Z M 28.1875 159.164062 " fill-opacity="1" fill-rule="nonzero"/><path fill="#184c34" d="M 28.1875 172.949219 L 39.214844 172.949219 L 39.214844 183.976562 L 28.1875 183.976562 Z M 28.1875 172.949219 " fill-opacity="1" fill-rule="nonzero"/><path fill="#184c34" d="M 28.1875 186.734375 L 39.214844 186.734375 L 39.214844 197.761719 L 28.1875 197.761719 Z M 28.1875 186.734375 " fill-opacity="1" fill-rule="nonzero"/><path fill="#184c34" d="M 28.1875 200.519531 L 39.214844 200.519531 L 39.214844 211.550781 L 28.1875 211.550781 Z M 28.1875 200.519531 " fill-opacity="1" fill-rule="nonzero"/><path fill="#184c34" d="M 28.1875 214.304688 L 39.214844 214.304688 L 39.214844 225.335938 L 28.1875 225.335938 Z M 28.1875 214.304688 " fill-opacity="1" fill-rule="nonzero"/><path fill="#184c34" d="M 28.1875 228.09375 L 39.214844 228.09375 L 39.214844 239.121094 L 28.1875 239.121094 Z M 28.1875 228.09375 " fill-opacity="1" fill-rule="nonzero"/><path fill="#184c34" d="M 28.1875 241.878906 L 39.214844 241.878906 L 39.214844 252.90625 L 28.1875 252.90625 Z M 28.1875 241.878906 " fill-opacity="1" fill-rule="nonzero"/><path fill="#184c34" d="M 41.972656 35.089844 L 53 35.089844 L 53 46.117188 L 41.972656 46.117188 Z M 41.972656 35.089844 " fill-opacity="1" fill-rule="nonzero"/><path fill="#184c34" d="M 41.972656 48.875 L 53 48.875 L 53 59.90625 L 41.972656 59.90625 Z M 41.972656 48.875 " fill-opacity="1" fill-rule="nonzero"/><path fill="#184c34" d="M 41.972656 62.660156 L 53 62.660156 L 53 73.691406 L 41.972656 73.691406 Z M 41.972656 62.660156 " fill-opacity="1" fill-rule="nonzero"/><path fill="#184c34" d="M 41.972656 76.445312 L 53 76.445312 L 53 87.476562 L 41.972656 87.476562 Z M 41.972656 76.445312 " fill-opacity="1" fill-rule="nonzero"/><path fill="#184c34" d="M 41.972656 90.234375 L 53 90.234375 L 53 101.261719 L 41.972656 101.261719 Z M 41.972656 90.234375 " fill-opacity="1" fill-rule="nonzero"/><path fill="#184c34" d="M 41.972656 104.019531 L 53 104.019531 L 53 115.046875 L 41.972656 115.046875 Z M 41.972656 104.019531 " fill-opacity="1" fill-rule="nonzero"/><path fill="#184c34" d="M 41.972656 117.804688 L 53 117.804688 L 53 128.832031 L 41.972656 128.832031 Z M 41.972656 117.804688 " fill-opacity="1" fill-rule="nonzero"/><path fill="#184c34" d="M 41.972656 131.589844 L 53 131.589844 L 53 142.621094 L 41.972656 142.621094 Z M 41.972656 131.589844 " fill-opacity="1" fill-rule="nonzero"/><path fill="#184c34" d="M 41.972656 145.375 L 53 145.375 L 53 156.40625 L 41.972656 156.40625 Z M 41.972656 145.375 " fill-opacity="1" fill-rule="nonzero"/><path fill="#184c34" d="M 41.972656 159.164062 L 53 159.164062 L 53 170.191406 L 41.972656 170.191406 Z M 41.972656 159.164062 " fill-opacity="1" fill-rule="nonzero"/><path fill="#184c34" d="M 41.972656 172.949219 L 53 172.949219 L 53 183.976562 L 41.972656 183.976562 Z M 41.972656 172.949219 " fill-opacity="1" fill-rule="nonzero"/><path fill="#184c34" d="M 41.972656 186.734375 L 53 186.734375 L 53 197.761719 L 41.972656 197.761719 Z M 41.972656 186.734375 " fill-opacity="1" fill-rule="nonzero"/><path fill="#184c34" d="M 41.972656 200.519531 L 53 200.519531 L 53 211.550781 L 41.972656 211.550781 Z M 41.972656 200.519531 " fill-opacity="1" fill-rule="nonzero"/><path fill="#184c34" d="M 41.972656 214.304688 L 53 214.304688 L 53 225.335938 L 41.972656 225.335938 Z M 41.972656 214.304688 " fill-opacity="1" fill-rule="nonzero"/><path fill="#184c34" d="M 41.972656 228.09375 L 53 228.09375 L 53 239.121094 L 41.972656 239.121094 Z M 41.972656 228.09375 " fill-opacity="1" fill-rule="nonzero"/><path fill="#184c34" d="M 41.972656 241.878906 L 53 241.878906 L 53 252.90625 L 41.972656 252.90625 Z M 41.972656 241.878906 " fill-opacity="1" fill-rule="nonzero"/><path fill="#184c34" d="M 55.757812 35.089844 L 66.785156 35.089844 L 66.785156 46.117188 L 55.757812 46.117188 Z M 55.757812 35.089844 " fill-opacity="1" fill-rule="nonzero"/><path fill="#184c34" d="M 55.757812 48.875 L 66.785156 48.875 L 66.785156 59.90625 L 55.757812 59.90625 Z M 55.757812 48.875 " fill-opacity="1" fill-rule="nonzero"/><path fill="#184c34" d="M 55.757812 62.660156 L 66.785156 62.660156 L 66.785156 73.691406 L 55.757812 73.691406 Z M 55.757812 62.660156 " fill-opacity="1" fill-rule="nonzero"/><path fill="#184c34" d="M 55.757812 90.234375 L 66.785156 90.234375 L 66.785156 101.261719 L 55.757812 101.261719 Z M 55.757812 90.234375 " fill-opacity="1" fill-rule="nonzero"/><path fill="#184c34" d="M 55.757812 104.019531 L 66.785156 104.019531 L 66.785156 115.046875 L 55.757812 115.046875 Z M 55.757812 104.019531 " fill-opacity="1" fill-rule="nonzero"/><path fill="#184c34" d="M 55.757812 117.804688 L 66.785156 117.804688 L 66.785156 128.832031 L 55.757812 128.832031 Z M 55.757812 117.804688 " fill-opacity="1" fill-rule="nonzero"/><path fill="#184c34" d="M 55.757812 131.589844 L 66.785156 131.589844 L 66.785156 142.621094 L 55.757812 142.621094 Z M 55.757812 131.589844 " fill-opacity="1" fill-rule="nonzero"/><path fill="#184c34" d="M 55.757812 145.375 L 66.785156 145.375 L 66.785156 156.40625 L 55.757812 156.40625 Z M 55.757812 145.375 " fill-opacity="1" fill-rule="nonzero"/><path fill="#184c34" d="M 55.757812 159.164062 L 66.785156 159.164062 L 66.785156 170.191406 L 55.757812 170.191406 Z M 55.757812 159.164062 " fill-opacity="1" fill-rule="nonzero"/><path fill="#184c34" d="M 55.757812 172.949219 L 66.785156 172.949219 L 66.785156 183.976562 L 55.757812 183.976562 Z M 55.757812 172.949219 " fill-opacity="1" fill-rule="nonzero"/><path fill="#184c34" d="M 55.757812 186.734375 L 66.785156 186.734375 L 66.785156 197.761719 L 55.757812 197.761719 Z M 55.757812 186.734375 " fill-opacity="1" fill-rule="nonzero"/><path fill="#184c34" d="M 55.757812 200.519531 L 66.785156 200.519531 L 66.785156 211.550781 L 55.757812 211.550781 Z M 55.757812 200.519531 " fill-opacity="1" fill-rule="nonzero"/><path fill="#184c34" d="M 55.757812 214.304688 L 66.785156 214.304688 L 66.785156 225.335938 L 55.757812 225.335938 Z M 55.757812 214.304688 " fill-opacity="1" fill-rule="nonzero"/><path fill="#184c34" d="M 55.757812 228.09375 L 66.785156 228.09375 L 66.785156 239.121094 L 55.757812 239.121094 Z M 55.757812 228.09375 " fill-opacity="1" fill-rule="nonzero"/><path fill="#184c34" d="M 55.757812 241.878906 L 66.785156 241.878906 L 66.785156 252.90625 L 55.757812 252.90625 Z M 55.757812 241.878906 " fill-opacity="1" fill-rule="nonzero"/><path fill="#184c34" d="M 69.542969 35.089844 L 80.570312 35.089844 L 80.570312 46.117188 L 69.542969 46.117188 Z M 69.542969 35.089844 " fill-opacity="1" fill-rule="nonzero"/><path fill="#184c34" d="M 69.542969 48.875 L 80.570312 48.875 L 80.570312 59.90625 L 69.542969 59.90625 Z M 69.542969 48.875 " fill-opacity="1" fill-rule="nonzero"/><path fill="#184c34" d="M 69.542969 62.660156 L 80.570312 62.660156 L 80.570312 73.691406 L 69.542969 73.691406 Z M 69.542969 62.660156 " fill-opacity="1" fill-rule="nonzero"/><path fill="#184c34" d="M 69.542969 76.445312 L 80.570312 76.445312 L 80.570312 87.476562 L 69.542969 87.476562 Z M 69.542969 76.445312 " fill-opacity="1" fill-rule="nonzero"/><path fill="#184c34" d="M 69.542969 90.234375 L 80.570312 90.234375 L 80.570312 101.261719 L 69.542969 101.261719 Z M 69.542969 90.234375 " fill-opacity="1" fill-rule="nonzero"/><path fill="#184c34" d="M 69.542969 104.019531 L 80.570312 104.019531 L 80.570312 115.046875 L 69.542969 115.046875 Z M 69.542969 104.019531 " fill-opacity="1" fill-rule="nonzero"/><path fill="#184c34" d="M 69.542969 117.804688 L 80.570312 117.804688 L 80.570312 128.832031 L 69.542969 128.832031 Z M 69.542969 117.804688 " fill-opacity="1" fill-rule="nonzero"/><path fill="#184c34" d="M 69.542969 131.589844 L 80.570312 131.589844 L 80.570312 142.621094 L 69.542969 142.621094 Z M 69.542969 131.589844 " fill-opacity="1" fill-rule="nonzero"/><path fill="#184c34" d="M 69.542969 159.164062 L 80.570312 159.164062 L 80.570312 170.191406 L 69.542969 170.191406 Z M 69.542969 159.164062 " fill-opacity="1" fill-rule="nonzero"/><path fill="#184c34" d="M 69.542969 172.949219 L 80.570312 172.949219 L 80.570312 183.976562 L 69.542969 183.976562 Z M 69.542969 172.949219 " fill-opacity="1" fill-rule="nonzero"/><path fill="#184c34" d="M 69.542969 186.734375 L 80.570312 186.734375 L 80.570312 197.761719 L 69.542969 197.761719 Z M 69.542969 186.734375 " fill-opacity="1" fill-rule="nonzero"/><path fill="#184c34" d="M 69.542969 200.519531 L 80.570312 200.519531 L 80.570312 211.550781 L 69.542969 211.550781 Z M 69.542969 200.519531 " fill-opacity="1" fill-rule="nonzero"/><path fill="#184c34" d="M 69.542969 214.304688 L 80.570312 214.304688 L 80.570312 225.335938 L 69.542969 225.335938 Z M 69.542969 214.304688 " fill-opacity="1" fill-rule="nonzero"/><path fill="#184c34" d="M 69.542969 241.878906 L 80.570312 241.878906 L 80.570312 252.90625 L 69.542969 252.90625 Z M 69.542969 241.878906 " fill-opacity="1" fill-rule="nonzero"/><path fill="#184c34" d="M 83.328125 35.089844 L 94.359375 35.089844 L 94.359375 46.117188 L 83.328125 46.117188 Z M 83.328125 35.089844 " fill-opacity="1" fill-rule="nonzero"/><path fill="#184c34" d="M 83.328125 48.875 L 94.359375 48.875 L 94.359375 59.90625 L 83.328125 59.90625 Z M 83.328125 48.875 " fill-opacity="1" fill-rule="nonzero"/><path fill="#184c34" d="M 83.328125 62.660156 L 94.359375 62.660156 L 94.359375 73.691406 L 83.328125 73.691406 Z M 83.328125 62.660156 " fill-opacity="1" fill-rule="nonzero"/><path fill="#184c34" d="M 83.328125 76.445312 L 94.359375 76.445312 L 94.359375 87.476562 L 83.328125 87.476562 Z M 83.328125 76.445312 " fill-opacity="1" fill-rule="nonzero"/><path fill="#184c34" d="M 83.328125 104.019531 L 94.359375 104.019531 L 94.359375 115.046875 L 83.328125 115.046875 Z M 83.328125 104.019531 " fill-opacity="1" fill-rule="nonzero"/><path fill="#184c34" d="M 83.328125 117.804688 L 94.359375 117.804688 L 94.359375 128.832031 L 83.328125 128.832031 Z M 83.328125 117.804688 " fill-opacity="1" fill-rule="nonzero"/><path fill="#184c34" d="M 83.328125 145.375 L 94.359375 145.375 L 94.359375 156.40625 L 83.328125 156.40625 Z M 83.328125 145.375 " fill-opacity="1" fill-rule="nonzero"/><path fill="#184c34" d="M 83.328125 159.164062 L 94.359375 159.164062 L 94.359375 170.191406 L 83.328125 170.191406 Z M 83.328125 159.164062 " fill-opacity="1" fill-rule="nonzero"/><path fill="#184c34" d="M 83.328125 172.949219 L 94.359375 172.949219 L 94.359375 183.976562 L 83.328125 183.976562 Z M 83.328125 172.949219 " fill-opacity="1" fill-rule="nonzero"/><path fill="#184c34" d="M 83.328125 186.734375 L 94.359375 186.734375 L 94.359375 197.761719 L 83.328125 197.761719 Z M 83.328125 186.734375 " fill-opacity="1" fill-rule="nonzero"/><path fill="#184c34" d="M 83.328125 214.304688 L 94.359375 214.304688 L 94.359375 225.335938 L 83.328125 225.335938 Z M 83.328125 214.304688 " fill-opacity="1" fill-rule="nonzero"/><path fill="#184c34" d="M 83.328125 228.09375 L 94.359375 228.09375 L 94.359375 239.121094 L 83.328125 239.121094 Z M 83.328125 228.09375 " fill-opacity="1" fill-rule="nonzero"/><path fill="#184c34" d="M 83.328125 241.878906 L 94.359375 241.878906 L 94.359375 252.90625 L 83.328125 252.90625 Z M 83.328125 241.878906 " fill-opacity="1" fill-rule="nonzero"/><path fill="#184c34" d="M 97.113281 35.089844 L 108.144531 35.089844 L 108.144531 46.117188 L 97.113281 46.117188 Z M 97.113281 35.089844 " fill-opacity="1" fill-rule="nonzero"/><path fill="#184c34" d="M 97.113281 62.660156 L 108.144531 62.660156 L 108.144531 73.691406 L 97.113281 73.691406 Z M 97.113281 62.660156 " fill-opacity="1" fill-rule="nonzero"/><path fill="#184c34" d="M 97.113281 76.445312 L 108.144531 76.445312 L 108.144531 87.476562 L 97.113281 87.476562 Z M 97.113281 76.445312 " fill-opacity="1" fill-rule="nonzero"/><path fill="#184c34" d="M 97.113281 90.234375 L 108.144531 90.234375 L 108.144531 101.261719 L 97.113281 101.261719 Z M 97.113281 90.234375 " fill-opacity="1" fill-rule="nonzero"/><path fill="#184c34" d="M 97.113281 117.804688 L 108.144531 117.804688 L 108.144531 128.832031 L 97.113281 128.832031 Z M 97.113281 117.804688 " fill-opacity="1" fill-rule="nonzero"/><path fill="#184c34" d="M 97.113281 131.589844 L 108.144531 131.589844 L 108.144531 142.621094 L 97.113281 142.621094 Z M 97.113281 131.589844 " fill-opacity="1" fill-rule="nonzero"/><path fill="#184c34" d="M 97.113281 145.375 L 108.144531 145.375 L 108.144531 156.40625 L 97.113281 156.40625 Z M 97.113281 145.375 " fill-opacity="1" fill-rule="nonzero"/><path fill="#184c34" d="M 97.113281 159.164062 L 108.144531 159.164062 L 108.144531 170.191406 L 97.113281 170.191406 Z M 97.113281 159.164062 " fill-opacity="1" fill-rule="nonzero"/><path fill="#184c34" d="M 97.113281 186.734375 L 108.144531 186.734375 L 108.144531 197.761719 L 97.113281 197.761719 Z M 97.113281 186.734375 " fill-opacity="1" fill-rule="nonzero"/><path fill="#184c34" d="M 97.113281 200.519531 L 108.144531 200.519531 L 108.144531 211.550781 L 97.113281 211.550781 Z M 97.113281 200.519531 " fill-opacity="1" fill-rule="nonzero"/><path fill="#184c34" d="M 97.113281 228.09375 L 108.144531 228.09375 L 108.144531 239.121094 L 97.113281 239.121094 Z M 97.113281 228.09375 " fill-opacity="1" fill-rule="nonzero"/><path fill="#184c34" d="M 97.113281 241.878906 L 108.144531 241.878906 L 108.144531 252.90625 L 97.113281 252.90625 Z M 97.113281 241.878906 " fill-opacity="1" fill-rule="nonzero"/><path fill="#184c34" d="M 110.902344 35.089844 L 121.929688 35.089844 L 121.929688 46.117188 L 110.902344 46.117188 Z M 110.902344 35.089844 " fill-opacity="1" fill-rule="nonzero"/><path fill="#184c34" d="M 110.902344 48.875 L 121.929688 48.875 L 121.929688 59.90625 L 110.902344 59.90625 Z M 110.902344 48.875 " fill-opacity="1" fill-rule="nonzero"/><path fill="#184c34" d="M 110.902344 76.445312 L 121.929688 76.445312 L 121.929688 87.476562 L 110.902344 87.476562 Z M 110.902344 76.445312 " fill-opacity="1" fill-rule="nonzero"/><path fill="#184c34" d="M 110.902344 104.019531 L 121.929688 104.019531 L 121.929688 115.046875 L 110.902344 115.046875 Z M 110.902344 104.019531 " fill-opacity="1" fill-rule="nonzero"/><path fill="#184c34" d="M 110.902344 131.589844 L 121.929688 131.589844 L 121.929688 142.621094 L 110.902344 142.621094 Z M 110.902344 131.589844 " fill-opacity="1" fill-rule="nonzero"/><path fill="#184c34" d="M 110.902344 145.375 L 121.929688 145.375 L 121.929688 156.40625 L 110.902344 156.40625 Z M 110.902344 145.375 " fill-opacity="1" fill-rule="nonzero"/><path fill="#184c34" d="M 110.902344 159.164062 L 121.929688 159.164062 L 121.929688 170.191406 L 110.902344 170.191406 Z M 110.902344 159.164062 " fill-opacity="1" fill-rule="nonzero"/><path fill="#184c34" d="M 110.902344 172.949219 L 121.929688 172.949219 L 121.929688 183.976562 L 110.902344 183.976562 Z M 110.902344 172.949219 " fill-opacity="1" fill-rule="nonzero"/><path fill="#184c34" d="M 110.902344 200.519531 L 121.929688 200.519531 L 121.929688 211.550781 L 110.902344 211.550781 Z M 110.902344 200.519531 " fill-opacity="1" fill-rule="nonzero"/><path fill="#184c34" d="M 110.902344 214.304688 L 121.929688 214.304688 L 121.929688 225.335938 L 110.902344 225.335938 Z M 110.902344 214.304688 " fill-opacity="1" fill-rule="nonzero"/><path fill="#184c34" d="M 110.902344 228.09375 L 121.929688 228.09375 L 121.929688 239.121094 L 110.902344 239.121094 Z M 110.902344 228.09375 " fill-opacity="1" fill-rule="nonzero"/><path fill="#184c34" d="M 124.6875 62.660156 L 135.714844 62.660156 L 135.714844 73.691406 L 124.6875 73.691406 Z M 124.6875 62.660156 " fill-opacity="1" fill-rule="nonzero"/><path fill="#184c34" d="M 124.6875 90.234375 L 135.714844 90.234375 L 135.714844 101.261719 L 124.6875 101.261719 Z M 124.6875 90.234375 " fill-opacity="1" fill-rule="nonzero"/><path fill="#184c34" d="M 124.6875 104.019531 L 135.714844 104.019531 L 135.714844 115.046875 L 124.6875 115.046875 Z M 124.6875 104.019531 " fill-opacity="1" fill-rule="nonzero"/><path fill="#184c34" d="M 124.6875 117.804688 L 135.714844 117.804688 L 135.714844 128.832031 L 124.6875 128.832031 Z M 124.6875 117.804688 " fill-opacity="1" fill-rule="nonzero"/><path fill="#184c34" d="M 124.6875 131.589844 L 135.714844 131.589844 L 135.714844 142.621094 L 124.6875 142.621094 Z M 124.6875 131.589844 " fill-opacity="1" fill-rule="nonzero"/><path fill="#184c34" d="M 124.6875 159.164062 L 135.714844 159.164062 L 135.714844 170.191406 L 124.6875 170.191406 Z M 124.6875 159.164062 " fill-opacity="1" fill-rule="nonzero"/><path fill="#184c34" d="M 124.6875 172.949219 L 135.714844 172.949219 L 135.714844 183.976562 L 124.6875 183.976562 Z M 124.6875 172.949219 " fill-opacity="1" fill-rule="nonzero"/><path fill="#184c34" d="M 124.6875 200.519531 L 135.714844 200.519531 L 135.714844 211.550781 L 124.6875 211.550781 Z M 124.6875 200.519531 " fill-opacity="1" fill-rule="nonzero"/><path fill="#184c34" d="M 124.6875 214.304688 L 135.714844 214.304688 L 135.714844 225.335938 L 124.6875 225.335938 Z M 124.6875 214.304688 " fill-opacity="1" fill-rule="nonzero"/><path fill="#184c34" d="M 124.6875 241.878906 L 135.714844 241.878906 L 135.714844 252.90625 L 124.6875 252.90625 Z M 124.6875 241.878906 " fill-opacity="1" fill-rule="nonzero"/><path fill="#184c34" d="M 138.472656 35.089844 L 149.5 35.089844 L 149.5 46.117188 L 138.472656 46.117188 Z M 138.472656 35.089844 " fill-opacity="1" fill-rule="nonzero"/><path fill="#184c34" d="M 138.472656 48.875 L 149.5 48.875 L 149.5 59.90625 L 138.472656 59.90625 Z M 138.472656 48.875 " fill-opacity="1" fill-rule="nonzero"/><path fill="#184c34" d="M 138.472656 76.445312 L 149.5 76.445312 L 149.5 87.476562 L 138.472656 87.476562 Z M 138.472656 76.445312 " fill-opacity="1" fill-rule="nonzero"/><path fill="#184c34" d="M 138.472656 90.234375 L 149.5 90.234375 L 149.5 101.261719 L 138.472656 101.261719 Z M 138.472656 90.234375 " fill-opacity="1" fill-rule="nonzero"/><path fill="#184c34" d="M 138.472656 104.019531 L 149.5 104.019531 L 149.5 115.046875 L 138.472656 115.046875 Z M 138.472656 104.019531 " fill-opacity="1" fill-rule="nonzero"/><path fill="#184c34" d="M 138.472656 131.589844 L 149.5 131.589844 L 149.5 142.621094 L 138.472656 142.621094 Z M 138.472656 131.589844 " fill-opacity="1" fill-rule="nonzero"/><path fill="#184c34" d="M 138.472656 145.375 L 149.5 145.375 L 149.5 156.40625 L 138.472656 156.40625 Z M 138.472656 145.375 " fill-opacity="1" fill-rule="nonzero"/><path fill="#184c34" d="M 138.472656 200.519531 L 149.5 200.519531 L 149.5 211.550781 L 138.472656 211.550781 Z M 138.472656 200.519531 " fill-opacity="1" fill-rule="nonzero"/><path fill="#184c34" d="M 138.472656 228.09375 L 149.5 228.09375 L 149.5 239.121094 L 138.472656 239.121094 Z M 138.472656 228.09375 " fill-opacity="1" fill-rule="nonzero"/><path fill="#184c34" d="M 138.472656 241.878906 L 149.5 241.878906 L 149.5 252.90625 L 138.472656 252.90625 Z M 138.472656 241.878906 " fill-opacity="1" fill-rule="nonzero"/><path fill="#184c34" d="M 152.257812 35.089844 L 163.289062 35.089844 L 163.289062 46.117188 L 152.257812 46.117188 Z M 152.257812 35.089844 " fill-opacity="1" fill-rule="nonzero"/><path fill="#184c34" d="M 152.257812 48.875 L 163.289062 48.875 L 163.289062 59.90625 L 152.257812 59.90625 Z M 152.257812 48.875 " fill-opacity="1" fill-rule="nonzero"/><path fill="#184c34" d="M 152.257812 62.660156 L 163.289062 62.660156 L 163.289062 73.691406 L 152.257812 73.691406 Z M 152.257812 62.660156 " fill-opacity="1" fill-rule="nonzero"/><path fill="#184c34" d="M 152.257812 104.019531 L 163.289062 104.019531 L 163.289062 115.046875 L 152.257812 115.046875 Z M 152.257812 104.019531 " fill-opacity="1" fill-rule="nonzero"/><path fill="#184c34" d="M 152.257812 117.804688 L 163.289062 117.804688 L 163.289062 128.832031 L 152.257812 128.832031 Z M 152.257812 117.804688 " fill-opacity="1" fill-rule="nonzero"/><path fill="#184c34" d="M 152.257812 172.949219 L 163.289062 172.949219 L 163.289062 183.976562 L 152.257812 183.976562 Z M 152.257812 172.949219 " fill-opacity="1" fill-rule="nonzero"/><path fill="#184c34" d="M 152.257812 186.734375 L 163.289062 186.734375 L 163.289062 197.761719 L 152.257812 197.761719 Z M 152.257812 186.734375 " fill-opacity="1" fill-rule="nonzero"/><path fill="#184c34" d="M 152.257812 214.304688 L 163.289062 214.304688 L 163.289062 225.335938 L 152.257812 225.335938 Z M 152.257812 214.304688 " fill-opacity="1" fill-rule="nonzero"/><path fill="#184c34" d="M 152.257812 241.878906 L 163.289062 241.878906 L 163.289062 252.90625 L 152.257812 252.90625 Z M 152.257812 241.878906 " fill-opacity="1" fill-rule="nonzero"/><path fill="#184c34" d="M 166.042969 48.875 L 177.074219 48.875 L 177.074219 59.90625 L 166.042969 59.90625 Z M 166.042969 48.875 " fill-opacity="1" fill-rule="nonzero"/><path fill="#184c34" d="M 166.042969 76.445312 L 177.074219 76.445312 L 177.074219 87.476562 L 166.042969 87.476562 Z M 166.042969 76.445312 " fill-opacity="1" fill-rule="nonzero"/><path fill="#184c34" d="M 166.042969 90.234375 L 177.074219 90.234375 L 177.074219 101.261719 L 166.042969 101.261719 Z M 166.042969 90.234375 " fill-opacity="1" fill-rule="nonzero"/><path fill="#184c34" d="M 166.042969 131.589844 L 177.074219 131.589844 L 177.074219 142.621094 L 166.042969 142.621094 Z M 166.042969 131.589844 " fill-opacity="1" fill-rule="nonzero"/><path fill="#184c34" d="M 166.042969 159.164062 L 177.074219 159.164062 L 177.074219 170.191406 L 166.042969 170.191406 Z M 166.042969 159.164062 " fill-opacity="1" fill-rule="nonzero"/><path fill="#184c34" d="M 166.042969 186.734375 L 177.074219 186.734375 L 177.074219 197.761719 L 166.042969 197.761719 Z M 166.042969 186.734375 " fill-opacity="1" fill-rule="nonzero"/><path fill="#184c34" d="M 166.042969 200.519531 L 177.074219 200.519531 L 177.074219 211.550781 L 166.042969 211.550781 Z M 166.042969 200.519531 " fill-opacity="1" fill-rule="nonzero"/><path fill="#184c34" d="M 166.042969 228.09375 L 177.074219 228.09375 L 177.074219 239.121094 L 166.042969 239.121094 Z M 166.042969 228.09375 " fill-opacity="1" fill-rule="nonzero"/><path fill="#184c34" d="M 179.832031 35.089844 L 190.859375 35.089844 L 190.859375 46.117188 L 179.832031 46.117188 Z M 179.832031 35.089844 " fill-opacity="1" fill-rule="nonzero"/><path fill="#184c34" d="M 179.832031 104.019531 L 190.859375 104.019531 L 190.859375 115.046875 L 179.832031 115.046875 Z M 179.832031 104.019531 " fill-opacity="1" fill-rule="nonzero"/><path fill="#184c34" d="M 179.832031 117.804688 L 190.859375 117.804688 L 190.859375 128.832031 L 179.832031 128.832031 Z M 179.832031 117.804688 " fill-opacity="1" fill-rule="nonzero"/><path fill="#184c34" d="M 179.832031 145.375 L 190.859375 145.375 L 190.859375 156.40625 L 179.832031 156.40625 Z M 179.832031 145.375 " fill-opacity="1" fill-rule="nonzero"/><path fill="#184c34" d="M 179.832031 172.949219 L 190.859375 172.949219 L 190.859375 183.976562 L 179.832031 183.976562 Z M 179.832031 172.949219 " fill-opacity="1" fill-rule="nonzero"/><path fill="#184c34" d="M 179.832031 214.304688 L 190.859375 214.304688 L 190.859375 225.335938 L 179.832031 225.335938 Z M 179.832031 214.304688 " fill-opacity="1" fill-rule="nonzero"/><path fill="#184c34" d="M 179.832031 228.09375 L 190.859375 228.09375 L 190.859375 239.121094 L 179.832031 239.121094 Z M 179.832031 228.09375 " fill-opacity="1" fill-rule="nonzero"/><path fill="#184c34" d="M 179.832031 241.878906 L 190.859375 241.878906 L 190.859375 252.90625 L 179.832031 252.90625 Z M 179.832031 241.878906 " fill-opacity="1" fill-rule="nonzero"/><path fill="#184c34" d="M 193.617188 48.875 L 204.644531 48.875 L 204.644531 59.90625 L 193.617188 59.90625 Z M 193.617188 48.875 " fill-opacity="1" fill-rule="nonzero"/><path fill="#184c34" d="M 193.617188 62.660156 L 204.644531 62.660156 L 204.644531 73.691406 L 193.617188 73.691406 Z M 193.617188 62.660156 " fill-opacity="1" fill-rule="nonzero"/><path fill="#184c34" d="M 193.617188 90.234375 L 204.644531 90.234375 L 204.644531 101.261719 L 193.617188 101.261719 Z M 193.617188 90.234375 " fill-opacity="1" fill-rule="nonzero"/><path fill="#184c34" d="M 193.617188 131.589844 L 204.644531 131.589844 L 204.644531 142.621094 L 193.617188 142.621094 Z M 193.617188 131.589844 " fill-opacity="1" fill-rule="nonzero"/><path fill="#184c34" d="M 193.617188 159.164062 L 204.644531 159.164062 L 204.644531 170.191406 L 193.617188 170.191406 Z M 193.617188 159.164062 " fill-opacity="1" fill-rule="nonzero"/><path fill="#184c34" d="M 193.617188 214.304688 L 204.644531 214.304688 L 204.644531 225.335938 L 193.617188 225.335938 Z M 193.617188 214.304688 " fill-opacity="1" fill-rule="nonzero"/><path fill="#184c34" d="M 193.617188 241.878906 L 204.644531 241.878906 L 204.644531 252.90625 L 193.617188 252.90625 Z M 193.617188 241.878906 " fill-opacity="1" fill-rule="nonzero"/><path fill="#184c34" d="M 207.402344 35.089844 L 218.429688 35.089844 L 218.429688 46.117188 L 207.402344 46.117188 Z M 207.402344 35.089844 " fill-opacity="1" fill-rule="nonzero"/><path fill="#184c34" d="M 207.402344 76.445312 L 218.429688 76.445312 L 218.429688 87.476562 L 207.402344 87.476562 Z M 207.402344 76.445312 " fill-opacity="1" fill-rule="nonzero"/><path fill="#184c34" d="M 207.402344 104.019531 L 218.429688 104.019531 L 218.429688 115.046875 L 207.402344 115.046875 Z M 207.402344 104.019531 " fill-opacity="1" fill-rule="nonzero"/><path fill="#184c34" d="M 207.402344 131.589844 L 218.429688 131.589844 L 218.429688 142.621094 L 207.402344 142.621094 Z M 207.402344 131.589844 " fill-opacity="1" fill-rule="nonzero"/><path fill="#184c34" d="M 207.402344 172.949219 L 218.429688 172.949219 L 218.429688 183.976562 L 207.402344 183.976562 Z M 207.402344 172.949219 " fill-opacity="1" fill-rule="nonzero"/><path fill="#184c34" d="M 207.402344 200.519531 L 218.429688 200.519531 L 218.429688 211.550781 L 207.402344 211.550781 Z M 207.402344 200.519531 " fill-opacity="1" fill-rule="nonzero"/><path fill="#184c34" d="M 221.1875 62.660156 L 232.21875 62.660156 L 232.21875 73.691406 L 221.1875 73.691406 Z M 221.1875 62.660156 " fill-opacity="1" fill-rule="nonzero"/><path fill="#184c34" d="M 221.1875 90.234375 L 232.21875 90.234375 L 232.21875 101.261719 L 221.1875 101.261719 Z M 221.1875 90.234375 " fill-opacity="1" fill-rule="nonzero"/><path fill="#184c34" d="M 221.1875 145.375 L 232.21875 145.375 L 232.21875 156.40625 L 221.1875 156.40625 Z M 221.1875 145.375 " fill-opacity="1" fill-rule="nonzero"/><path fill="#184c34" d="M 221.1875 200.519531 L 232.21875 200.519531 L 232.21875 211.550781 L 221.1875 211.550781 Z M 221.1875 200.519531 " fill-opacity="1" fill-rule="nonzero"/><path fill="#184c34" d="M 221.1875 228.09375 L 232.21875 228.09375 L 232.21875 239.121094 L 221.1875 239.121094 Z M 221.1875 228.09375 " fill-opacity="1" fill-rule="nonzero"/><path fill="#184c34" d="M 234.972656 48.875 L 246.003906 48.875 L 246.003906 59.90625 L 234.972656 59.90625 Z M 234.972656 48.875 " fill-opacity="1" fill-rule="nonzero"/><path fill="#184c34" d="M 234.972656 117.804688 L 246.003906 117.804688 L 246.003906 128.832031 L 234.972656 128.832031 Z M 234.972656 117.804688 " fill-opacity="1" fill-rule="nonzero"/><path fill="#184c34" d="M 234.972656 172.949219 L 246.003906 172.949219 L 246.003906 183.976562 L 234.972656 183.976562 Z M 234.972656 172.949219 " fill-opacity="1" fill-rule="nonzero"/><path fill="#184c34" d="M 234.972656 241.878906 L 246.003906 241.878906 L 246.003906 252.90625 L 234.972656 252.90625 Z M 234.972656 241.878906 " fill-opacity="1" fill-rule="nonzero"/><path fill="#184c34" d="M 248.757812 90.234375 L 259.789062 90.234375 L 259.789062 101.261719 L 248.757812 101.261719 Z M 248.757812 90.234375 " fill-opacity="1" fill-rule="nonzero"/><path fill="#184c34" d="M 248.757812 145.375 L 259.789062 145.375 L 259.789062 156.40625 L 248.757812 156.40625 Z M 248.757812 145.375 " fill-opacity="1" fill-rule="nonzero"/><path fill="#184c34" d="M 248.757812 228.09375 L 259.789062 228.09375 L 259.789062 239.121094 L 248.757812 239.121094 Z M 248.757812 228.09375 " fill-opacity="1" fill-rule="nonzero"/><g clip-path="url(#0c775d223e)"><path fill="#184c34" d="M 262.546875 62.660156 L 273.574219 62.660156 L 273.574219 73.691406 L 262.546875 73.691406 Z M 262.546875 62.660156 " fill-opacity="1" fill-rule="nonzero"/></g><g clip-path="url(#e2943fc9d3)"><path fill="#184c34" d="M 262.546875 186.734375 L 273.574219 186.734375 L 273.574219 197.761719 L 262.546875 197.761719 Z M 262.546875 186.734375 " fill-opacity="1" fill-rule="nonzero"/></g></svg>